# xmcd CD database file
#
# Track frame offsets:
#	183
#	37083
#	56483
#	68103
#	84173
#	97483
#	106870
#	120053
#	129765
#
# Disc length: 1881 seconds
#
# Revision: 3
# Processed by: cddbd v1.5.2PL0 Copyright (c) Steve Scherf et al.
# Submitted via: jetAudio 7
#
DISCID=6b075709
DTITLE=The Statler Brothers - Maple Street Memories
DYEAR=1987
DGENRE=Country
TTITLE0=Our Street - Tell Me Why
TTITLE1=Maple Street Mem'ries
TTITLE2=Déjà Vu
TTITLE3=Am I Crazy
TTITLE4=The Best I Know How
TTITLE5=I'll Be The One
TTITLE6=Beyond Romance
TTITLE7=I Lost My Heart To You
TTITLE8=Jesus Showed Me So
EXTD=
EXTT0=
EXTT1=
EXTT2=
EXTT3=
EXTT4=
EXTT5=
EXTT6=
EXTT7=
EXTT8=
PLAYORDER=
